<svg xmlns="http://www.w3.org/2000/svg" viewBox="0 0 120 120" width="480" height="480">
<defs>
  <radialGradient id="bg" cx="50%" cy="36%" r="74%">
    <stop offset="0%" stop-color="#FFFDF9"/>
    <stop offset="100%" stop-color="#EFE8DC"/>
  </radialGradient>
  <filter id="flou" x="-40%" y="-40%" width="180%" height="180%">
    <feGaussianBlur stdDeviation="1.5"/>
  </filter>
  <clipPath id="clip"><circle cx="60" cy="60" r="57.2"/></clipPath>
</defs>
<circle cx="60" cy="60" r="60" fill="url(#bg)"/>
<g clip-path="url(#clip)">
  <g transform="translate(-12.5,-2) scale(1.45)">
<ellipse cx="50" cy="99.5" rx="24" ry="2.4" fill="rgba(20,15,10,0.16)"/>
<g><path d="M 71.50 81.65 A 4.02 4.02 0 0 1 68.58 87.69 A 4.02 4.02 0 0 1 64.01 92.60 A 4.02 4.02 0 0 1 58.20 95.95 A 4.02 4.02 0 0 1 51.66 97.44 A 4.02 4.02 0 0 1 44.98 96.93 A 4.02 4.02 0 0 1 38.73 94.48 A 4.02 4.02 0 0 1 33.49 90.29 A 4.02 4.02 0 0 1 29.72 84.75 A 4.02 4.02 0 0 1 27.75 78.34 A 4.02 4.02 0 0 1 27.75 71.63 A 4.02 4.02 0 0 1 29.74 65.22 A 4.02 4.02 0 0 1 33.52 59.68 A 4.02 4.02 0 0 1 38.77 55.51 A 4.02 4.02 0 0 1 45.01 53.06 A 4.02 4.02 0 0 1 51.70 52.56 A 4.02 4.02 0 0 1 58.24 54.06 A 4.02 4.02 0 0 1 64.04 57.42 A 4.02 4.02 0 0 1 68.60 62.34 A 4.02 4.02 0 0 1 71.51 68.39 A 4.02 4.02 0 0 1 72.50 75.02 A 4.02 4.02 0 0 1 71.50 81.65 Z" fill="#DCC9A6"/><clipPath id="p1"><path d="M 71.50 81.65 A 4.02 4.02 0 0 1 68.58 87.69 A 4.02 4.02 0 0 1 64.01 92.60 A 4.02 4.02 0 0 1 58.20 95.95 A 4.02 4.02 0 0 1 51.66 97.44 A 4.02 4.02 0 0 1 44.98 96.93 A 4.02 4.02 0 0 1 38.73 94.48 A 4.02 4.02 0 0 1 33.49 90.29 A 4.02 4.02 0 0 1 29.72 84.75 A 4.02 4.02 0 0 1 27.75 78.34 A 4.02 4.02 0 0 1 27.75 71.63 A 4.02 4.02 0 0 1 29.74 65.22 A 4.02 4.02 0 0 1 33.52 59.68 A 4.02 4.02 0 0 1 38.77 55.51 A 4.02 4.02 0 0 1 45.01 53.06 A 4.02 4.02 0 0 1 51.70 52.56 A 4.02 4.02 0 0 1 58.24 54.06 A 4.02 4.02 0 0 1 64.04 57.42 A 4.02 4.02 0 0 1 68.60 62.34 A 4.02 4.02 0 0 1 71.51 68.39 A 4.02 4.02 0 0 1 72.50 75.02 A 4.02 4.02 0 0 1 71.50 81.65 Z"/></clipPath><g clip-path="url(#p1)"><circle cx="44.60" cy="69.15" r="22.95" fill="#F2EADA"/><circle cx="39.65" cy="63.75" r="16.20" fill="#FDF9F0"/></g></g>
<clipPath id="k2"><path d="M 71.50 81.65 A 4.02 4.02 0 0 1 68.58 87.69 A 4.02 4.02 0 0 1 64.01 92.60 A 4.02 4.02 0 0 1 58.20 95.95 A 4.02 4.02 0 0 1 51.66 97.44 A 4.02 4.02 0 0 1 44.98 96.93 A 4.02 4.02 0 0 1 38.73 94.48 A 4.02 4.02 0 0 1 33.49 90.29 A 4.02 4.02 0 0 1 29.72 84.75 A 4.02 4.02 0 0 1 27.75 78.34 A 4.02 4.02 0 0 1 27.75 71.63 A 4.02 4.02 0 0 1 29.74 65.22 A 4.02 4.02 0 0 1 33.52 59.68 A 4.02 4.02 0 0 1 38.77 55.51 A 4.02 4.02 0 0 1 45.01 53.06 A 4.02 4.02 0 0 1 51.70 52.56 A 4.02 4.02 0 0 1 58.24 54.06 A 4.02 4.02 0 0 1 64.04 57.42 A 4.02 4.02 0 0 1 68.60 62.34 A 4.02 4.02 0 0 1 71.51 68.39 A 4.02 4.02 0 0 1 72.50 75.02 A 4.02 4.02 0 0 1 71.50 81.65 Z"/></clipPath><mask id="k3"><rect x="0" y="0" width="100" height="110" fill="#fff"/><path d="M 77.30 42.29 A 4.15 4.15 0 0 1 75.52 49.25 A 4.15 4.15 0 0 1 72.00 55.50 A 4.15 4.15 0 0 1 66.98 60.63 A 4.15 4.15 0 0 1 60.80 64.29 A 4.15 4.15 0 0 1 53.89 66.22 A 4.15 4.15 0 0 1 46.71 66.30 A 4.15 4.15 0 0 1 39.75 64.52 A 4.15 4.15 0 0 1 33.50 61.00 A 4.15 4.15 0 0 1 28.37 55.98 A 4.15 4.15 0 0 1 24.71 49.80 A 4.15 4.15 0 0 1 22.78 42.89 A 4.15 4.15 0 0 1 22.70 35.71 A 4.15 4.15 0 0 1 24.48 28.75 A 4.15 4.15 0 0 1 28.00 22.50 A 4.15 4.15 0 0 1 33.02 17.37 A 4.15 4.15 0 0 1 39.20 13.71 A 4.15 4.15 0 0 1 46.11 11.78 A 4.15 4.15 0 0 1 53.29 11.70 A 4.15 4.15 0 0 1 60.25 13.48 A 4.15 4.15 0 0 1 66.50 17.00 A 4.15 4.15 0 0 1 71.63 22.02 A 4.15 4.15 0 0 1 75.29 28.20 A 4.15 4.15 0 0 1 77.22 35.11 A 4.15 4.15 0 0 1 77.30 42.29 Z" fill="#000"/></mask><g clip-path="url(#k2)" mask="url(#k3)" filter="url(#flou)" opacity="0.5"><g transform="translate(2.2 3.6)"><path d="M 77.30 42.29 A 4.15 4.15 0 0 1 75.52 49.25 A 4.15 4.15 0 0 1 72.00 55.50 A 4.15 4.15 0 0 1 66.98 60.63 A 4.15 4.15 0 0 1 60.80 64.29 A 4.15 4.15 0 0 1 53.89 66.22 A 4.15 4.15 0 0 1 46.71 66.30 A 4.15 4.15 0 0 1 39.75 64.52 A 4.15 4.15 0 0 1 33.50 61.00 A 4.15 4.15 0 0 1 28.37 55.98 A 4.15 4.15 0 0 1 24.71 49.80 A 4.15 4.15 0 0 1 22.78 42.89 A 4.15 4.15 0 0 1 22.70 35.71 A 4.15 4.15 0 0 1 24.48 28.75 A 4.15 4.15 0 0 1 28.00 22.50 A 4.15 4.15 0 0 1 33.02 17.37 A 4.15 4.15 0 0 1 39.20 13.71 A 4.15 4.15 0 0 1 46.11 11.78 A 4.15 4.15 0 0 1 53.29 11.70 A 4.15 4.15 0 0 1 60.25 13.48 A 4.15 4.15 0 0 1 66.50 17.00 A 4.15 4.15 0 0 1 71.63 22.02 A 4.15 4.15 0 0 1 75.29 28.20 A 4.15 4.15 0 0 1 77.22 35.11 A 4.15 4.15 0 0 1 77.30 42.29 Z" fill="#BBA687"/></g></g>
<g transform="translate(40.1 94.3) scale(1.06 0.84) translate(-40.1 -94.3)"><path d="M 45.17 96.44 A 3.96 3.96 0 0 1 41.58 99.60 A 3.96 3.96 0 0 1 36.88 98.76 A 3.96 3.96 0 0 1 34.61 94.57 A 3.96 3.96 0 0 1 36.47 90.17 A 3.96 3.96 0 0 1 41.06 88.88 A 3.96 3.96 0 0 1 44.93 91.67 A 3.96 3.96 0 0 1 45.17 96.44 Z" fill="#DCC9A6"/><clipPath id="p4"><path d="M 45.17 96.44 A 3.96 3.96 0 0 1 41.58 99.60 A 3.96 3.96 0 0 1 36.88 98.76 A 3.96 3.96 0 0 1 34.61 94.57 A 3.96 3.96 0 0 1 36.47 90.17 A 3.96 3.96 0 0 1 41.06 88.88 A 3.96 3.96 0 0 1 44.93 91.67 A 3.96 3.96 0 0 1 45.17 96.44 Z"/></clipPath><g clip-path="url(#p4)"><circle cx="38.78" cy="92.87" r="5.61" fill="#F2EADA"/><circle cx="37.57" cy="91.55" r="3.96" fill="#FDF9F0"/></g></g>
<g transform="translate(59.9 94.3) scale(1.06 0.84) translate(-59.9 -94.3)"><path d="M 63.32 98.61 A 3.96 3.96 0 0 1 58.66 99.66 A 3.96 3.96 0 0 1 54.94 96.67 A 3.96 3.96 0 0 1 54.95 91.90 A 3.96 3.96 0 0 1 58.69 88.93 A 3.96 3.96 0 0 1 63.34 90.01 A 3.96 3.96 0 0 1 65.40 94.31 A 3.96 3.96 0 0 1 63.32 98.61 Z" fill="#DCC9A6"/><clipPath id="p5"><path d="M 63.32 98.61 A 3.96 3.96 0 0 1 58.66 99.66 A 3.96 3.96 0 0 1 54.94 96.67 A 3.96 3.96 0 0 1 54.95 91.90 A 3.96 3.96 0 0 1 58.69 88.93 A 3.96 3.96 0 0 1 63.34 90.01 A 3.96 3.96 0 0 1 65.40 94.31 A 3.96 3.96 0 0 1 63.32 98.61 Z"/></clipPath><g clip-path="url(#p5)"><circle cx="58.58" cy="92.87" r="5.61" fill="#F2EADA"/><circle cx="57.37" cy="91.55" r="3.96" fill="#FDF9F0"/></g></g>
<g transform="rotate(-7 50 63)">
  <path d="M 36.05 68.00 Q 50 73.50 63.95 68.00"
    fill="none" stroke="#2D6A4F" stroke-width="1.58" stroke-linecap="round"/>
  <circle cx="50" cy="74.40" r="2.9" fill="#E4A62A" stroke="#B9821A" stroke-width="0.37"/>
  <circle cx="49" cy="73.60" r="0.9" fill="#FFFFFF" opacity="0.5"/>
</g>
<g transform="rotate(-7 50 63)">
  <g transform="translate(24.7 49.2) scale(0.9 1.26) translate(-24.7 -49.2)"><path d="M 33.14 58.81 A 3.28 3.28 0 0 1 28.14 61.52 A 3.28 3.28 0 0 1 22.45 61.79 A 3.28 3.28 0 0 1 17.21 59.57 A 3.28 3.28 0 0 1 13.46 55.29 A 3.28 3.28 0 0 1 11.93 49.81 A 3.28 3.28 0 0 1 12.93 44.21 A 3.28 3.28 0 0 1 16.26 39.59 A 3.28 3.28 0 0 1 21.26 36.88 A 3.28 3.28 0 0 1 26.95 36.61 A 3.28 3.28 0 0 1 32.19 38.83 A 3.28 3.28 0 0 1 35.94 43.11 A 3.28 3.28 0 0 1 37.47 48.59 A 3.28 3.28 0 0 1 36.47 54.19 A 3.28 3.28 0 0 1 33.14 58.81 Z" fill="#C9B492"/><clipPath id="p6"><path d="M 33.14 58.81 A 3.28 3.28 0 0 1 28.14 61.52 A 3.28 3.28 0 0 1 22.45 61.79 A 3.28 3.28 0 0 1 17.21 59.57 A 3.28 3.28 0 0 1 13.46 55.29 A 3.28 3.28 0 0 1 11.93 49.81 A 3.28 3.28 0 0 1 12.93 44.21 A 3.28 3.28 0 0 1 16.26 39.59 A 3.28 3.28 0 0 1 21.26 36.88 A 3.28 3.28 0 0 1 26.95 36.61 A 3.28 3.28 0 0 1 32.19 38.83 A 3.28 3.28 0 0 1 35.94 43.11 A 3.28 3.28 0 0 1 37.47 48.59 A 3.28 3.28 0 0 1 36.47 54.19 A 3.28 3.28 0 0 1 33.14 58.81 Z"/></clipPath><g clip-path="url(#p6)"><circle cx="21.63" cy="45.88" r="13.04" fill="#E0D0B2"/><circle cx="18.82" cy="42.81" r="9.21" fill="#F0E5D0"/></g></g>
  <g transform="translate(75.3 44.4) scale(0.9 1.3) translate(-75.3 -44.4)"><path d="M 88.62 47.80 A 3.66 3.66 0 0 1 85.83 53.25 A 3.66 3.66 0 0 1 80.95 56.94 A 3.66 3.66 0 0 1 74.95 58.15 A 3.66 3.66 0 0 1 69.02 56.63 A 3.66 3.66 0 0 1 64.33 52.69 A 3.66 3.66 0 0 1 61.82 47.12 A 3.66 3.66 0 0 1 61.98 41.00 A 3.66 3.66 0 0 1 64.77 35.55 A 3.66 3.66 0 0 1 69.65 31.86 A 3.66 3.66 0 0 1 75.65 30.65 A 3.66 3.66 0 0 1 81.58 32.17 A 3.66 3.66 0 0 1 86.27 36.11 A 3.66 3.66 0 0 1 88.78 41.68 A 3.66 3.66 0 0 1 88.62 47.80 Z" fill="#C9B492"/><clipPath id="p7"><path d="M 88.62 47.80 A 3.66 3.66 0 0 1 85.83 53.25 A 3.66 3.66 0 0 1 80.95 56.94 A 3.66 3.66 0 0 1 74.95 58.15 A 3.66 3.66 0 0 1 69.02 56.63 A 3.66 3.66 0 0 1 64.33 52.69 A 3.66 3.66 0 0 1 61.82 47.12 A 3.66 3.66 0 0 1 61.98 41.00 A 3.66 3.66 0 0 1 64.77 35.55 A 3.66 3.66 0 0 1 69.65 31.86 A 3.66 3.66 0 0 1 75.65 30.65 A 3.66 3.66 0 0 1 81.58 32.17 A 3.66 3.66 0 0 1 86.27 36.11 A 3.66 3.66 0 0 1 88.78 41.68 A 3.66 3.66 0 0 1 88.62 47.80 Z"/></clipPath><g clip-path="url(#p7)"><circle cx="72.00" cy="40.82" r="14.03" fill="#E0D0B2"/><circle cx="68.97" cy="37.52" r="9.90" fill="#F0E5D0"/></g></g>
  <g transform="translate(50 14.8) scale(1.3 0.94) translate(-50 -14.8)"><path d="M 55.47 24.34 A 3.34 3.34 0 0 1 49.97 25.80 A 3.34 3.34 0 0 1 44.47 24.31 A 3.34 3.34 0 0 1 40.46 20.27 A 3.34 3.34 0 0 1 39.00 14.77 A 3.34 3.34 0 0 1 40.49 9.27 A 3.34 3.34 0 0 1 44.53 5.26 A 3.34 3.34 0 0 1 50.03 3.80 A 3.34 3.34 0 0 1 55.53 5.29 A 3.34 3.34 0 0 1 59.54 9.33 A 3.34 3.34 0 0 1 61.00 14.83 A 3.34 3.34 0 0 1 59.51 20.33 A 3.34 3.34 0 0 1 55.47 24.34 Z" fill="#DCC9A6"/><clipPath id="p8"><path d="M 55.47 24.34 A 3.34 3.34 0 0 1 49.97 25.80 A 3.34 3.34 0 0 1 44.47 24.31 A 3.34 3.34 0 0 1 40.46 20.27 A 3.34 3.34 0 0 1 39.00 14.77 A 3.34 3.34 0 0 1 40.49 9.27 A 3.34 3.34 0 0 1 44.53 5.26 A 3.34 3.34 0 0 1 50.03 3.80 A 3.34 3.34 0 0 1 55.53 5.29 A 3.34 3.34 0 0 1 59.54 9.33 A 3.34 3.34 0 0 1 61.00 14.83 A 3.34 3.34 0 0 1 59.51 20.33 A 3.34 3.34 0 0 1 55.47 24.34 Z"/></clipPath><g clip-path="url(#p8)"><circle cx="47.36" cy="11.94" r="11.22" fill="#F2EADA"/><circle cx="44.94" cy="9.30" r="7.92" fill="#FDF9F0"/></g></g>
  <clipPath id="k9"><path d="M 33.14 58.81 A 3.28 3.28 0 0 1 28.14 61.52 A 3.28 3.28 0 0 1 22.45 61.79 A 3.28 3.28 0 0 1 17.21 59.57 A 3.28 3.28 0 0 1 13.46 55.29 A 3.28 3.28 0 0 1 11.93 49.81 A 3.28 3.28 0 0 1 12.93 44.21 A 3.28 3.28 0 0 1 16.26 39.59 A 3.28 3.28 0 0 1 21.26 36.88 A 3.28 3.28 0 0 1 26.95 36.61 A 3.28 3.28 0 0 1 32.19 38.83 A 3.28 3.28 0 0 1 35.94 43.11 A 3.28 3.28 0 0 1 37.47 48.59 A 3.28 3.28 0 0 1 36.47 54.19 A 3.28 3.28 0 0 1 33.14 58.81 Z" transform="translate(24.7 49.2) scale(0.9 1.26) translate(-24.7 -49.2)"/><path d="M 88.62 47.80 A 3.66 3.66 0 0 1 85.83 53.25 A 3.66 3.66 0 0 1 80.95 56.94 A 3.66 3.66 0 0 1 74.95 58.15 A 3.66 3.66 0 0 1 69.02 56.63 A 3.66 3.66 0 0 1 64.33 52.69 A 3.66 3.66 0 0 1 61.82 47.12 A 3.66 3.66 0 0 1 61.98 41.00 A 3.66 3.66 0 0 1 64.77 35.55 A 3.66 3.66 0 0 1 69.65 31.86 A 3.66 3.66 0 0 1 75.65 30.65 A 3.66 3.66 0 0 1 81.58 32.17 A 3.66 3.66 0 0 1 86.27 36.11 A 3.66 3.66 0 0 1 88.78 41.68 A 3.66 3.66 0 0 1 88.62 47.80 Z" transform="translate(75.3 44.4) scale(0.9 1.3) translate(-75.3 -44.4)"/><path d="M 55.47 24.34 A 3.34 3.34 0 0 1 49.97 25.80 A 3.34 3.34 0 0 1 44.47 24.31 A 3.34 3.34 0 0 1 40.46 20.27 A 3.34 3.34 0 0 1 39.00 14.77 A 3.34 3.34 0 0 1 40.49 9.27 A 3.34 3.34 0 0 1 44.53 5.26 A 3.34 3.34 0 0 1 50.03 3.80 A 3.34 3.34 0 0 1 55.53 5.29 A 3.34 3.34 0 0 1 59.54 9.33 A 3.34 3.34 0 0 1 61.00 14.83 A 3.34 3.34 0 0 1 59.51 20.33 A 3.34 3.34 0 0 1 55.47 24.34 Z" transform="translate(50 14.8) scale(1.3 0.94) translate(-50 -14.8)"/></clipPath><mask id="k10"><rect x="0" y="0" width="100" height="110" fill="#fff"/><path d="M 77.30 42.29 A 4.15 4.15 0 0 1 75.52 49.25 A 4.15 4.15 0 0 1 72.00 55.50 A 4.15 4.15 0 0 1 66.98 60.63 A 4.15 4.15 0 0 1 60.80 64.29 A 4.15 4.15 0 0 1 53.89 66.22 A 4.15 4.15 0 0 1 46.71 66.30 A 4.15 4.15 0 0 1 39.75 64.52 A 4.15 4.15 0 0 1 33.50 61.00 A 4.15 4.15 0 0 1 28.37 55.98 A 4.15 4.15 0 0 1 24.71 49.80 A 4.15 4.15 0 0 1 22.78 42.89 A 4.15 4.15 0 0 1 22.70 35.71 A 4.15 4.15 0 0 1 24.48 28.75 A 4.15 4.15 0 0 1 28.00 22.50 A 4.15 4.15 0 0 1 33.02 17.37 A 4.15 4.15 0 0 1 39.20 13.71 A 4.15 4.15 0 0 1 46.11 11.78 A 4.15 4.15 0 0 1 53.29 11.70 A 4.15 4.15 0 0 1 60.25 13.48 A 4.15 4.15 0 0 1 66.50 17.00 A 4.15 4.15 0 0 1 71.63 22.02 A 4.15 4.15 0 0 1 75.29 28.20 A 4.15 4.15 0 0 1 77.22 35.11 A 4.15 4.15 0 0 1 77.30 42.29 Z" fill="#000"/></mask><g clip-path="url(#k9)" mask="url(#k10)" filter="url(#flou)" opacity="0.5"><g transform="translate(1.8 2.8)"><path d="M 77.30 42.29 A 4.15 4.15 0 0 1 75.52 49.25 A 4.15 4.15 0 0 1 72.00 55.50 A 4.15 4.15 0 0 1 66.98 60.63 A 4.15 4.15 0 0 1 60.80 64.29 A 4.15 4.15 0 0 1 53.89 66.22 A 4.15 4.15 0 0 1 46.71 66.30 A 4.15 4.15 0 0 1 39.75 64.52 A 4.15 4.15 0 0 1 33.50 61.00 A 4.15 4.15 0 0 1 28.37 55.98 A 4.15 4.15 0 0 1 24.71 49.80 A 4.15 4.15 0 0 1 22.78 42.89 A 4.15 4.15 0 0 1 22.70 35.71 A 4.15 4.15 0 0 1 24.48 28.75 A 4.15 4.15 0 0 1 28.00 22.50 A 4.15 4.15 0 0 1 33.02 17.37 A 4.15 4.15 0 0 1 39.20 13.71 A 4.15 4.15 0 0 1 46.11 11.78 A 4.15 4.15 0 0 1 53.29 11.70 A 4.15 4.15 0 0 1 60.25 13.48 A 4.15 4.15 0 0 1 66.50 17.00 A 4.15 4.15 0 0 1 71.63 22.02 A 4.15 4.15 0 0 1 75.29 28.20 A 4.15 4.15 0 0 1 77.22 35.11 A 4.15 4.15 0 0 1 77.30 42.29 Z" fill="#BBA687"/></g></g>
  <g><path d="M 77.30 42.29 A 4.15 4.15 0 0 1 75.52 49.25 A 4.15 4.15 0 0 1 72.00 55.50 A 4.15 4.15 0 0 1 66.98 60.63 A 4.15 4.15 0 0 1 60.80 64.29 A 4.15 4.15 0 0 1 53.89 66.22 A 4.15 4.15 0 0 1 46.71 66.30 A 4.15 4.15 0 0 1 39.75 64.52 A 4.15 4.15 0 0 1 33.50 61.00 A 4.15 4.15 0 0 1 28.37 55.98 A 4.15 4.15 0 0 1 24.71 49.80 A 4.15 4.15 0 0 1 22.78 42.89 A 4.15 4.15 0 0 1 22.70 35.71 A 4.15 4.15 0 0 1 24.48 28.75 A 4.15 4.15 0 0 1 28.00 22.50 A 4.15 4.15 0 0 1 33.02 17.37 A 4.15 4.15 0 0 1 39.20 13.71 A 4.15 4.15 0 0 1 46.11 11.78 A 4.15 4.15 0 0 1 53.29 11.70 A 4.15 4.15 0 0 1 60.25 13.48 A 4.15 4.15 0 0 1 66.50 17.00 A 4.15 4.15 0 0 1 71.63 22.02 A 4.15 4.15 0 0 1 75.29 28.20 A 4.15 4.15 0 0 1 77.22 35.11 A 4.15 4.15 0 0 1 77.30 42.29 Z" fill="#DCC9A6"/><clipPath id="p11"><path d="M 77.30 42.29 A 4.15 4.15 0 0 1 75.52 49.25 A 4.15 4.15 0 0 1 72.00 55.50 A 4.15 4.15 0 0 1 66.98 60.63 A 4.15 4.15 0 0 1 60.80 64.29 A 4.15 4.15 0 0 1 53.89 66.22 A 4.15 4.15 0 0 1 46.71 66.30 A 4.15 4.15 0 0 1 39.75 64.52 A 4.15 4.15 0 0 1 33.50 61.00 A 4.15 4.15 0 0 1 28.37 55.98 A 4.15 4.15 0 0 1 24.71 49.80 A 4.15 4.15 0 0 1 22.78 42.89 A 4.15 4.15 0 0 1 22.70 35.71 A 4.15 4.15 0 0 1 24.48 28.75 A 4.15 4.15 0 0 1 28.00 22.50 A 4.15 4.15 0 0 1 33.02 17.37 A 4.15 4.15 0 0 1 39.20 13.71 A 4.15 4.15 0 0 1 46.11 11.78 A 4.15 4.15 0 0 1 53.29 11.70 A 4.15 4.15 0 0 1 60.25 13.48 A 4.15 4.15 0 0 1 66.50 17.00 A 4.15 4.15 0 0 1 71.63 22.02 A 4.15 4.15 0 0 1 75.29 28.20 A 4.15 4.15 0 0 1 77.22 35.11 A 4.15 4.15 0 0 1 77.30 42.29 Z"/></clipPath><g clip-path="url(#p11)"><circle cx="43.40" cy="31.85" r="28.05" fill="#F2EADA"/><circle cx="37.35" cy="25.25" r="19.80" fill="#FDF9F0"/></g></g>
  <ellipse cx="29.65" cy="51.51" rx="4.3" ry="3" fill="#D99B72" opacity="0.17"/>
  <ellipse cx="70.35" cy="51.51" rx="4.3" ry="3" fill="#D99B72" opacity="0.17"/>
  <clipPath id="k12"><path d="M 77.30 42.29 A 4.15 4.15 0 0 1 75.52 49.25 A 4.15 4.15 0 0 1 72.00 55.50 A 4.15 4.15 0 0 1 66.98 60.63 A 4.15 4.15 0 0 1 60.80 64.29 A 4.15 4.15 0 0 1 53.89 66.22 A 4.15 4.15 0 0 1 46.71 66.30 A 4.15 4.15 0 0 1 39.75 64.52 A 4.15 4.15 0 0 1 33.50 61.00 A 4.15 4.15 0 0 1 28.37 55.98 A 4.15 4.15 0 0 1 24.71 49.80 A 4.15 4.15 0 0 1 22.78 42.89 A 4.15 4.15 0 0 1 22.70 35.71 A 4.15 4.15 0 0 1 24.48 28.75 A 4.15 4.15 0 0 1 28.00 22.50 A 4.15 4.15 0 0 1 33.02 17.37 A 4.15 4.15 0 0 1 39.20 13.71 A 4.15 4.15 0 0 1 46.11 11.78 A 4.15 4.15 0 0 1 53.29 11.70 A 4.15 4.15 0 0 1 60.25 13.48 A 4.15 4.15 0 0 1 66.50 17.00 A 4.15 4.15 0 0 1 71.63 22.02 A 4.15 4.15 0 0 1 75.29 28.20 A 4.15 4.15 0 0 1 77.22 35.11 A 4.15 4.15 0 0 1 77.30 42.29 Z"/></clipPath><mask id="k13"><rect x="0" y="0" width="100" height="110" fill="#fff"/><path d="M 58.31 60.61 A 2.05 2.05 0 0 1 56.67 64.03 A 2.05 2.05 0 0 1 53.70 66.40 A 2.05 2.05 0 0 1 50.00 67.24 A 2.05 2.05 0 0 1 46.30 66.40 A 2.05 2.05 0 0 1 43.33 64.03 A 2.05 2.05 0 0 1 41.69 60.61 A 2.05 2.05 0 0 1 41.69 56.82 A 2.05 2.05 0 0 1 43.33 53.40 A 2.05 2.05 0 0 1 46.30 51.04 A 2.05 2.05 0 0 1 50.00 50.19 A 2.05 2.05 0 0 1 53.70 51.04 A 2.05 2.05 0 0 1 56.67 53.40 A 2.05 2.05 0 0 1 58.31 56.82 A 2.05 2.05 0 0 1 58.31 60.61 Z" transform="translate(50 58.7175) scale(1.5 0.86) translate(-50 -58.7175)" fill="#000"/></mask><g clip-path="url(#k12)" mask="url(#k13)" filter="url(#flou)" opacity="0.5"><g transform="translate(1.1 1.9)"><path d="M 58.31 60.61 A 2.05 2.05 0 0 1 56.67 64.03 A 2.05 2.05 0 0 1 53.70 66.40 A 2.05 2.05 0 0 1 50.00 67.24 A 2.05 2.05 0 0 1 46.30 66.40 A 2.05 2.05 0 0 1 43.33 64.03 A 2.05 2.05 0 0 1 41.69 60.61 A 2.05 2.05 0 0 1 41.69 56.82 A 2.05 2.05 0 0 1 43.33 53.40 A 2.05 2.05 0 0 1 46.30 51.04 A 2.05 2.05 0 0 1 50.00 50.19 A 2.05 2.05 0 0 1 53.70 51.04 A 2.05 2.05 0 0 1 56.67 53.40 A 2.05 2.05 0 0 1 58.31 56.82 A 2.05 2.05 0 0 1 58.31 60.61 Z" transform="translate(50 58.7175) scale(1.5 0.86) translate(-50 -58.7175)" fill="#BBA687"/></g></g>
  <g transform="translate(50 58.7175) scale(1.5 0.86) translate(-50 -58.7175)"><path d="M 58.31 60.61 A 2.05 2.05 0 0 1 56.67 64.03 A 2.05 2.05 0 0 1 53.70 66.40 A 2.05 2.05 0 0 1 50.00 67.24 A 2.05 2.05 0 0 1 46.30 66.40 A 2.05 2.05 0 0 1 43.33 64.03 A 2.05 2.05 0 0 1 41.69 60.61 A 2.05 2.05 0 0 1 41.69 56.82 A 2.05 2.05 0 0 1 43.33 53.40 A 2.05 2.05 0 0 1 46.30 51.04 A 2.05 2.05 0 0 1 50.00 50.19 A 2.05 2.05 0 0 1 53.70 51.04 A 2.05 2.05 0 0 1 56.67 53.40 A 2.05 2.05 0 0 1 58.31 56.82 A 2.05 2.05 0 0 1 58.31 60.61 Z" fill="#FDF9F0"/></g>
  
  <circle cx="38.80" cy="45.5" r="5.4" fill="#3E3225"/>
  <circle cx="39.72" cy="44.74" r="2.81" fill="#241A11"/>
  <circle cx="37.94" cy="42.48" r="1.78" fill="#FFFFFF"/>
  <circle cx="41.88" cy="46.58" r="0.84" fill="#FFFFFF" opacity="0.72"/>
  <circle cx="61.20" cy="45.5" r="5.4" fill="#3E3225"/>
  <circle cx="60.28" cy="44.74" r="2.81" fill="#241A11"/>
  <circle cx="58.50" cy="42.48" r="1.78" fill="#FFFFFF"/>
  <circle cx="62.44" cy="46.58" r="0.84" fill="#FFFFFF" opacity="0.72"/>
  <ellipse cx="50" cy="57.01" rx="4.37" ry="3.20" fill="#3E3225"/>
  <ellipse cx="48.83" cy="55.76" rx="1.17" ry="0.66" fill="#FFFFFF" opacity="0.45"/>
  <path d="M50 60.05 v1.95 M50 62.00 q-2.42 2.42 -4.37 0 M50 62.00 q2.42 2.42 4.37 0"
    stroke="#3E3225" stroke-width="0.65" fill="none" stroke-linecap="round" stroke-linejoin="round"/>
  <path d="M 47.97 65.20 q 2.03 4.09 4.06 0 Z" fill="#EE9AA6"/>
</g></g>
</g>
<circle cx="60" cy="60" r="58.4" fill="none" stroke="#2C6D50" stroke-width="2.4" opacity="0.9"/>
</svg>